<!-- <svg width="208.36494140625px" height="106.02252197265625px" xmlns="http://www.w3.org/2000/svg" viewBox="45.817529296874994 -28.011260986328125 408.36494140625 206.02252197265625" style="background: rgb(91, 96, 104);" preserveAspectRatio="xMidYMid"><defs><filter id="editing-lego" x="-100%" y="-100%" width="300%" height="300%"><feFlood flood-color="#000000" result="f1"></feFlood><feFlood flood-color="#fffee4" result="f2"></feFlood><feMorphology operator="dilate" radius="3" in="SourceAlpha"></feMorphology><feConvolveMatrix order="5,5" divisor="1" result="cm1" kernelMatrix="0 1 1 1 0  1 0 0 0 1  1 0 0 0 1  1 0 0 0 1  0 1 1 1 0"></feConvolveMatrix><feComposite operator="in" in="f1" in2="cm1" result="c1"></feComposite><feMorphology operator="dilate" radius="3"></feMorphology><feConvolveMatrix order="5,5" divisor="1" result="cm2" kernelMatrix="0 1 1 1 0  1 0 0 0 1  1 0 0 0 1  1 0 0 0 1  0 1 1 1 0"></feConvolveMatrix><feComposite operator="in" in="f2" in2="cm2" result="c2"></feComposite><feMerge><feMergeNode in="c2"></feMergeNode><feMergeNode in="c1"></feMergeNode><feMergeNode in="SourceGraphic"></feMergeNode></feMerge></filter></defs><g filter="url(#editing-lego)"><g transform="translate(104.80999755859375, 114.38999938964844)"><path d="M53.08-15.46L61.75-7.84L61.75-7.84Q57.47-3.66 52.04-1.57L52.04-1.57L52.04-1.57Q46.60 0.52 40.33 0.52L40.33 0.52L40.33 0.52Q33.44 0.52 27.64-1.99L27.64-1.99L27.64-1.99Q21.84-4.49 17.50-9.40L17.50-9.40L17.50-9.40Q13.17-14.32 10.71-21.73L10.71-21.73L10.71-21.73Q8.25-29.15 8.25-38.87L8.25-38.87L8.25-38.87Q8.25-48.59 10.71-55.96L10.71-55.96L10.71-55.96Q13.17-63.32 17.50-68.23L17.50-68.23L17.50-68.23Q21.84-73.14 27.69-75.70L27.69-75.70L27.69-75.70Q33.54-78.26 40.33-78.26L40.33-78.26L40.33-78.26Q46.60-78.26 52.04-76.17L52.04-76.17L52.04-76.17Q57.47-74.08 61.75-69.91L61.75-69.91L53.08-62.17L53.08-62.17Q50.47-65.20 47.28-66.56L47.28-66.56L47.28-66.56Q44.10-67.92 40.65-67.92L40.65-67.92L40.65-67.92Q36.78-67.92 33.28-66.46L33.28-66.46L33.28-66.46Q29.78-64.99 27.01-61.49L27.01-61.49L27.01-61.49Q24.24-57.99 22.67-52.46L22.67-52.46L22.67-52.46Q21.11-46.92 21.00-38.87L21.00-38.87L21.00-38.87Q21.11-31.03 22.62-25.50L22.62-25.50L22.62-25.50Q24.14-19.96 26.80-16.46L26.80-16.46L26.80-16.46Q29.47-12.96 32.86-11.34L32.86-11.34L32.86-11.34Q36.26-9.72 40.02-9.72L40.02-9.72L40.02-9.72Q43.78-9.72 47.07-11.08L47.07-11.08L47.07-11.08Q50.37-12.43 53.08-15.46L53.08-15.46ZM118.81-77.01L133.12-77.01L110.24-31.35L110.24 0L97.49 0L97.49-30.30L75.76-77.01L90.07-77.01L103.34-42.53L104.49-42.53L118.81-77.01ZM183.80-24.35L206.58-77.01L219.33-77.01L219.33 0L206.58 0L206.58-52.98L189.34-10.14L178.26-10.14L160.92-52.98L160.92 0L148.17 0L148.17-77.01L160.92-77.01L183.80-24.35ZM282.13-21.11L282.13-21.11L282.13-21.11Q282.13-16.93 280.40-13.01L280.40-13.01L280.40-13.01Q278.68-9.09 275.55-6.11L275.55-6.11L275.55-6.11Q272.41-3.13 267.81-1.36L267.81-1.36L267.81-1.36Q263.22 0.42 257.36 0.42L257.36 0.42L257.36 0.42Q254.86 0.42 252.19 0.16L252.19 0.16L252.19 0.16Q249.53-0.10 246.81-0.73L246.81-0.73L246.81-0.73Q244.09-1.36 241.64-2.46L241.64-2.46L241.64-2.46Q239.18-3.55 237.41-5.12L237.41-5.12L239.60-14.11L239.60-14.11Q241.06-13.27 243.31-12.49L243.31-12.49L243.31-12.49Q245.56-11.70 247.96-11.02L247.96-11.02L247.96-11.02Q250.36-10.34 252.77-9.93L252.77-9.93L252.77-9.93Q255.17-9.51 257.26-9.51L257.26-9.51L257.26-9.51Q263.63-9.51 267.03-12.49L267.03-12.49L267.03-12.49Q270.43-15.46 270.43-21.32L270.43-21.32L270.43-21.32Q270.43-24.87 268.02-27.38L268.02-27.38L268.02-27.38Q265.62-29.88 262.01-31.92L262.01-31.92L262.01-31.92Q258.41-33.96 254.23-36.00L254.23-36.00L254.23-36.00Q250.05-38.04 246.39-40.80L246.39-40.80L246.39-40.80Q242.74-43.57 240.33-47.33L240.33-47.33L240.33-47.33Q237.93-51.10 237.93-56.74L237.93-56.74L237.93-56.74Q237.93-61.86 239.81-65.83L239.81-65.83L239.81-65.83Q241.69-69.80 244.88-72.57L244.88-72.57L244.88-72.57Q248.06-75.34 252.30-76.80L252.30-76.80L252.30-76.80Q256.53-78.26 261.23-78.26L261.23-78.26L261.23-78.26Q266.04-78.26 270.95-77.38L270.95-77.38L270.95-77.38Q275.86-76.49 278.89-74.50L278.89-74.50L278.89-74.50Q278.26-73.14 277.43-71.52L277.43-71.52L277.43-71.52Q276.59-69.91 275.86-68.49L275.86-68.49L275.86-68.49Q275.13-67.08 274.61-66.14L274.61-66.14L274.61-66.14Q274.08-65.20 273.98-65.10L273.98-65.10L273.98-65.10Q273.35-65.41 272.57-65.93L272.57-65.93L272.57-65.93Q271.78-66.46 270.32-66.98L270.32-66.98L270.32-66.98Q268.86-67.50 266.46-67.71L266.46-67.71L266.46-67.71Q264.05-67.92 260.29-67.61L260.29-67.61L260.29-67.61Q258.20-67.40 256.32-66.40L256.32-66.40L256.32-66.40Q254.44-65.41 252.98-63.95L252.98-63.95L252.98-63.95Q251.51-62.49 250.68-60.66L250.68-60.66L250.68-60.66Q249.84-58.83 249.84-57.16L249.84-57.16L249.84-57.16Q249.84-52.98 252.24-50.42L252.24-50.42L252.24-50.42Q254.65-47.86 258.20-45.92L258.20-45.92L258.20-45.92Q261.75-43.99 265.93-42.16L265.93-42.16L265.93-42.16Q270.11-40.33 273.72-37.72L273.72-37.72L273.72-37.72Q277.32-35.11 279.73-31.19L279.73-31.19L279.73-31.19Q282.13-27.27 282.13-21.11Z" fill="#ffdf00"></path></g></g><style>text {
  font-size: 100px;
  font-family: Arial Black;
  dominant-baseline: central;
  text-anchor: middle;
}</style></svg> -->


<svg width="208.36494140625px" height="106.02252197265625px" xmlns="http://www.w3.org/2000/svg" viewBox="45.817529296874994 -28.011260986328125 408.36494140625 206.02252197265625" style="background: #ebeef3;" preserveAspectRatio="xMidYMid"><defs><filter id="editing-lego" x="-100%" y="-100%" width="300%" height="300%"><feFlood flood-color="#545661" result="f1"></feFlood><feFlood flood-color="#f4f4f4" result="f2"></feFlood><feMorphology operator="dilate" radius="3" in="SourceAlpha"></feMorphology><feConvolveMatrix order="5,5" divisor="1" result="cm1" kernelMatrix="0 1 1 1 0  1 0 0 0 1  1 0 0 0 1  1 0 0 0 1  0 1 1 1 0"></feConvolveMatrix><feComposite operator="in" in="f1" in2="cm1" result="c1"></feComposite><feMorphology operator="dilate" radius="3"></feMorphology><feConvolveMatrix order="5,5" divisor="1" result="cm2" kernelMatrix="0 1 1 1 0  1 0 0 0 1  1 0 0 0 1  1 0 0 0 1  0 1 1 1 0"></feConvolveMatrix><feComposite operator="in" in="f2" in2="cm2" result="c2"></feComposite><feMerge><feMergeNode in="c2"></feMergeNode><feMergeNode in="c1"></feMergeNode><feMergeNode in="SourceGraphic"></feMergeNode></feMerge></filter></defs><g filter="url(#editing-lego)"><g transform="translate(104.80999755859375, 114.38999938964844)"><path d="M53.08-15.46L61.75-7.84L61.75-7.84Q57.47-3.66 52.04-1.57L52.04-1.57L52.04-1.57Q46.60 0.52 40.33 0.52L40.33 0.52L40.33 0.52Q33.44 0.52 27.64-1.99L27.64-1.99L27.64-1.99Q21.84-4.49 17.50-9.40L17.50-9.40L17.50-9.40Q13.17-14.32 10.71-21.73L10.71-21.73L10.71-21.73Q8.25-29.15 8.25-38.87L8.25-38.87L8.25-38.87Q8.25-48.59 10.71-55.96L10.71-55.96L10.71-55.96Q13.17-63.32 17.50-68.23L17.50-68.23L17.50-68.23Q21.84-73.14 27.69-75.70L27.69-75.70L27.69-75.70Q33.54-78.26 40.33-78.26L40.33-78.26L40.33-78.26Q46.60-78.26 52.04-76.17L52.04-76.17L52.04-76.17Q57.47-74.08 61.75-69.91L61.75-69.91L53.08-62.17L53.08-62.17Q50.47-65.20 47.28-66.56L47.28-66.56L47.28-66.56Q44.10-67.92 40.65-67.92L40.65-67.92L40.65-67.92Q36.78-67.92 33.28-66.46L33.28-66.46L33.28-66.46Q29.78-64.99 27.01-61.49L27.01-61.49L27.01-61.49Q24.24-57.99 22.67-52.46L22.67-52.46L22.67-52.46Q21.11-46.92 21.00-38.87L21.00-38.87L21.00-38.87Q21.11-31.03 22.62-25.50L22.62-25.50L22.62-25.50Q24.14-19.96 26.80-16.46L26.80-16.46L26.80-16.46Q29.47-12.96 32.86-11.34L32.86-11.34L32.86-11.34Q36.26-9.72 40.02-9.72L40.02-9.72L40.02-9.72Q43.78-9.72 47.07-11.08L47.07-11.08L47.07-11.08Q50.37-12.43 53.08-15.46L53.08-15.46ZM118.81-77.01L133.12-77.01L110.24-31.35L110.24 0L97.49 0L97.49-30.30L75.76-77.01L90.07-77.01L103.34-42.53L104.49-42.53L118.81-77.01ZM183.80-24.35L206.58-77.01L219.33-77.01L219.33 0L206.58 0L206.58-52.98L189.34-10.14L178.26-10.14L160.92-52.98L160.92 0L148.17 0L148.17-77.01L160.92-77.01L183.80-24.35ZM282.13-21.11L282.13-21.11L282.13-21.11Q282.13-16.93 280.40-13.01L280.40-13.01L280.40-13.01Q278.68-9.09 275.55-6.11L275.55-6.11L275.55-6.11Q272.41-3.13 267.81-1.36L267.81-1.36L267.81-1.36Q263.22 0.42 257.36 0.42L257.36 0.42L257.36 0.42Q254.86 0.42 252.19 0.16L252.19 0.16L252.19 0.16Q249.53-0.10 246.81-0.73L246.81-0.73L246.81-0.73Q244.09-1.36 241.64-2.46L241.64-2.46L241.64-2.46Q239.18-3.55 237.41-5.12L237.41-5.12L239.60-14.11L239.60-14.11Q241.06-13.27 243.31-12.49L243.31-12.49L243.31-12.49Q245.56-11.70 247.96-11.02L247.96-11.02L247.96-11.02Q250.36-10.34 252.77-9.93L252.77-9.93L252.77-9.93Q255.17-9.51 257.26-9.51L257.26-9.51L257.26-9.51Q263.63-9.51 267.03-12.49L267.03-12.49L267.03-12.49Q270.43-15.46 270.43-21.32L270.43-21.32L270.43-21.32Q270.43-24.87 268.02-27.38L268.02-27.38L268.02-27.38Q265.62-29.88 262.01-31.92L262.01-31.92L262.01-31.92Q258.41-33.96 254.23-36.00L254.23-36.00L254.23-36.00Q250.05-38.04 246.39-40.80L246.39-40.80L246.39-40.80Q242.74-43.57 240.33-47.33L240.33-47.33L240.33-47.33Q237.93-51.10 237.93-56.74L237.93-56.74L237.93-56.74Q237.93-61.86 239.81-65.83L239.81-65.83L239.81-65.83Q241.69-69.80 244.88-72.57L244.88-72.57L244.88-72.57Q248.06-75.34 252.30-76.80L252.30-76.80L252.30-76.80Q256.53-78.26 261.23-78.26L261.23-78.26L261.23-78.26Q266.04-78.26 270.95-77.38L270.95-77.38L270.95-77.38Q275.86-76.49 278.89-74.50L278.89-74.50L278.89-74.50Q278.26-73.14 277.43-71.52L277.43-71.52L277.43-71.52Q276.59-69.91 275.86-68.49L275.86-68.49L275.86-68.49Q275.13-67.08 274.61-66.14L274.61-66.14L274.61-66.14Q274.08-65.20 273.98-65.10L273.98-65.10L273.98-65.10Q273.35-65.41 272.57-65.93L272.57-65.93L272.57-65.93Q271.78-66.46 270.32-66.98L270.32-66.98L270.32-66.98Q268.86-67.50 266.46-67.71L266.46-67.71L266.46-67.71Q264.05-67.92 260.29-67.61L260.29-67.61L260.29-67.61Q258.20-67.40 256.32-66.40L256.32-66.40L256.32-66.40Q254.44-65.41 252.98-63.95L252.98-63.95L252.98-63.95Q251.51-62.49 250.68-60.66L250.68-60.66L250.68-60.66Q249.84-58.83 249.84-57.16L249.84-57.16L249.84-57.16Q249.84-52.98 252.24-50.42L252.24-50.42L252.24-50.42Q254.65-47.86 258.20-45.92L258.20-45.92L258.20-45.92Q261.75-43.99 265.93-42.16L265.93-42.16L265.93-42.16Q270.11-40.33 273.72-37.72L273.72-37.72L273.72-37.72Q277.32-35.11 279.73-31.19L279.73-31.19L279.73-31.19Q282.13-27.27 282.13-21.11Z" fill="#ebc456"></path></g></g><style>text {
  font-size: 100px;
  font-family: Arial Black;
  dominant-baseline: central;
  text-anchor: middle;
}</style></svg>